<mxfile host="65bd71144e">
    <diagram id="6m6_lFqKbqMbNZxsNTCS" name="Page-1">
        <mxGraphModel dx="869" dy="2692" grid="1" gridSize="10" guides="1" tooltips="1" connect="1" arrows="1" fold="1" page="1" pageScale="1" pageWidth="850" pageHeight="1100" math="0" shadow="0">
            <root>
                <mxCell id="0"/>
                <mxCell id="1" parent="0"/>
                <mxCell id="2" value="&lt;h1&gt;&lt;b&gt;&lt;font color=&quot;#0000ff&quot; face=&quot;Georgia&quot; style=&quot;font-size: 24px;&quot;&gt;Ananylsis of Algorithm&lt;/font&gt;&lt;/b&gt;&lt;/h1&gt;" style="rounded=0;whiteSpace=wrap;html=1;fillColor=#C078FF;gradientColor=#FFF347;" vertex="1" parent="1">
                    <mxGeometry x="210" y="-2160" width="410" height="70" as="geometry"/>
                </mxCell>
            </root>
        </mxGraphModel>
    </diagram>
</mxfile>